<?xml version="1.0" encoding="UTF-8"?><svg id="Layer_1" xmlns="http://www.w3.org/2000/svg" viewBox="0 0 956.49 223.93"><defs><style>.cls-1{fill:#fff;}</style></defs><path class="cls-1" d="M19.7,212.75c-8.66,15.04-20.96,9.11-19.59-3.64C7.39,175.39,80.75,61.49,124.94,11.37c10.93-9.11,20.96-1.37,14.58,7.75-16.4,23.69-56.04,79.28-81.1,121.19,16.4-5.47,38.27-11.39,53.76-17.77,19.14-8.66,22.32,3.65,6.83,11.85-18.22,9.57-41.46,13.67-59.23,20.96,25.97,57.86,65.61,13.67,100.23-9.11,12.3-8.66,16.86,1.37,5.47,9.57-42.83,29.16-91.58,71.99-120.28,5.01-10.02,16.4-15.04,34.17-25.51,51.94Z"/><path class="cls-1" d="M129.95,194.98c.46-15.49,12.3-34.17,28.7-48.75,20.5-18.22,46.93-30.53,65.61-24.15,5.01,1.37,8.2,2.28,12.76,0,3.65-3.19,9.11-2.73,12.76,.91,4.56,3.64,1.82,8.66-1.37,13.21-11.39,21.41-25.97,31.89-28.7,50.12-5.47,36.45,72.9-38.27,77-43.28,10.94-12.3,17.31-3.65,8.2,6.38-16.86,18.22-46.47,45.56-71.08,60.6-44.65,27.34-45.56-25.06-20.96-48.29-16.86,11.39-44.65,36.45-64.7,45.11-10.48,5.01-19.14-.91-18.22-11.85Zm18.22-4.1c21.41-16.4,48.75-34.63,67.89-52.4-20.96-5.01-66.52,26.43-67.89,52.4Z"/><path class="cls-1" d="M268.46,214.12c-3.65,5.01-9.57,12.76-15.95,8.66-7.29-4.1-4.1-13.21-1.37-18.68,6.83-13.21,45.11-71.53,69.25-88.39,11.85-8.66,26.43,.46,16.86,9.11-4.56,3.64-19.59,16.4-20.5,20.96,10.48-7.75,36.9-22.33,49.21-26.88,13.21-5.01,25.06,5.01,19.59,16.86-12.3,27.79-5.47,29.62,9.57,21.87,7.75-3.64,15.95-8.2,26.43-14.58,11.85-7.29,13.67,2.28,7.29,7.75-4.56,3.64-17.77,12.76-31.44,18.68-18.68,8.2-37.82,11.85-37.82-8.2,0-6.83,2.73-12.76,4.56-18.22,2.73-8.66-.91-9.11-11.85-2.73-34.17,18.68-60.6,44.19-83.83,73.81Z"/><path class="cls-1" d="M391.48,194.98c.46-15.49,12.3-34.17,28.7-48.75,20.5-18.22,46.93-30.53,65.61-24.15,5.01,1.37,8.2,2.28,12.76,0,3.65-3.19,9.11-2.73,12.76,.91,4.56,3.64,1.82,8.66-1.37,13.21-11.39,21.41-25.97,31.89-28.7,50.12-5.47,36.45,72.9-38.27,77-43.28,10.93-12.3,17.31-3.65,8.2,6.38-16.86,18.22-46.47,45.56-71.08,60.6-44.65,27.34-45.56-25.06-20.96-48.29-16.86,11.39-44.65,36.45-64.7,45.11-10.48,5.01-19.14-.91-18.22-11.85Zm18.22-4.1c21.41-16.4,48.75-34.63,67.89-52.4-20.96-5.01-66.52,26.43-67.89,52.4Z"/><path class="cls-1" d="M694.91,156.71c-31.44,22.78-68.8,47.84-105.7,61.96-33.71,11.85-61.05-1.82-49.66-40.55,10.48-35.08,52.39-72.9,84.29-69.25,16.4,1.82,25.51,17.77,18.22,32.8-3.65,9.11-7.75,1.37-9.57-5.01-1.82-8.66-6.83-12.3-12.3-12.3-18.23,0-74.72,57.41-61.96,76.54,11.85,19.59,116.64-41,130.76-53.31,10.02-7.75,16.4-.91,5.92,9.11Z"/><path class="cls-1" d="M829.32,148.05c11.85-8.66,16.86-.91,7.29,8.66-15.49,14.58-61.51,56.95-81.55,60.14-20.96,3.65-25.06-13.67-18.22-29.16,5.92-15.95,17.77-29.16,24.6-44.19-33.72,11.39-63.79,39.64-86.11,65.15-5.47,8.66-20.05,3.64-16.86-5.92,17.31-52.85,101.15-154.91,131.67-198.65,6.83-10.02,20.05,.46,13.67,9.57-26.42,37.82-69.71,95.22-98.87,144.88,16.4-12.76,35.99-24.15,55.13-30.53,9.57-3.19,23.24-3.19,20.96,10.02-4.1,18.22-16.4,33.71-24.15,49.66-11.85,24.15,11.39,8.2,20.5,2.73,17.77-10.48,36.45-27.79,51.94-42.37Z"/><path class="cls-1" d="M924.09,144.41c7.29-6.38,16.86-2.73,7.29,6.38-8.66,6.83-92.94,83.38-116.18,61.96-22.78-21.41,21.41-77.45,35.54-92.49,12.3-12.3,27.34,.46,14.58,14.58-12.76,15.49-24.15,32.35-33.26,51.03-9.57,21.87,9.57,16.4,22.78,7.75,23.69-15.49,42.37-30.98,69.25-49.21Zm-35.54-44.65c-1.37,11.85-30.07,3.64-18.68-9.11,6.83-5.92,20.05,0,18.68,9.11Z"/><path class="cls-1" d="M947.32,207.28c-13.21,.91-14.12-20.05-.46-20.05s12.3,20.05,.46,20.05Z"/></svg>