<?xml version="1.0" encoding="utf-8"?>
<!-- Generator: Adobe Illustrator 26.5.0, SVG Export Plug-In . SVG Version: 6.00 Build 0)  -->
<svg version="1.1" id="Layer_1" xmlns="http://www.w3.org/2000/svg" xmlns:xlink="http://www.w3.org/1999/xlink" x="0px" y="0px"
	 viewBox="0 0 387.3 182.5" style="enable-background:new 0 0 387.3 182.5;" xml:space="preserve">
<style type="text/css">
	.st0{fill:#FFFFFF;}
</style>
<g>
	<path class="st0" d="M32.2,46.6L31.7,42c-2.8,4.2-7.9,5.1-11.1,5.1c-12.6,0-18.2-7.9-18.2-16s6-16,18.2-16c3.9,0,9,1.9,10.9,5.1
		V1.5h7v45.2H32.2z M32.6,31.8c0-6.2-3.8-10.2-10.4-10.2s-10.2,5-10.2,10.1s3.5,10.1,10.2,10.1S32.6,37.9,32.6,31.8L32.6,31.8z"/>
	<path class="st0" d="M78.3,39.5c-2.9,6-8.3,8-14.2,8.2c-8.5,0.2-16-6.2-16.5-14.7C47,23,54.1,16,63.8,16c10.4,0,16.5,7.6,16,18.4
		H54.3c0.9,5.4,5,7.5,9.4,7.5c3.5,0,7-0.5,9-4.5L78.3,39.5L78.3,39.5z M73.2,29.2c-0.9-5.4-5.2-7.6-9.5-7.6s-8.5,2.4-9.4,7.6H73.2z"
		/>
	<path class="st0" d="M83.4,15.4h7L98.1,31l3.8,8.9l3.6-8.9l7.7-15.6h7v0.4l-15.3,30.9h-5.8L83.6,15.7v-0.4
		C83.6,15.4,83.4,15.4,83.4,15.4z"/>
	<path class="st0" d="M154.3,39.5c-2.9,6-8.3,8-14.2,8.2c-8.5,0.2-16-6.2-16.5-14.7C123,23,130.2,16,139.9,16
		c10.4,0,16.5,7.6,16,18.4h-25.5c0.9,5.4,5,7.5,9.4,7.5c3.5,0,6.9-0.5,9-4.5L154.3,39.5L154.3,39.5z M149.3,29.2
		c-0.9-5.4-5.2-7.6-9.6-7.6s-8.5,2.4-9.4,7.6H149.3L149.3,29.2z"/>
	<path class="st0" d="M170.4,46.6h-6.9V1.5h6.9V46.6z"/>
	<path class="st0" d="M177.8,31.5c0-9.2,7.1-15.8,16.7-15.8s16.7,6.4,16.7,15.8s-7.1,15.8-16.7,15.8S177.8,40.8,177.8,31.5
		L177.8,31.5z M204.5,31.5c0-6.1-4.2-10.2-9.9-10.2s-10.1,4.3-10.1,10.2s4.2,10.4,10.1,10.4S204.5,37.5,204.5,31.5L204.5,31.5z"/>
	<path class="st0" d="M225.3,17.1l0.6,4.4c2.7-4.1,7.7-4.9,10.8-4.9c12.2,0,17.7,7.7,17.7,15.5s-5.9,15.5-17.7,15.5
		c-3.8,0-8.6-1.9-10.6-4.9v17.9h-6.9V17.1H225.3z M225.9,31.3c0,6.3,3.8,10.3,10.4,10.3s10.2-5,10.2-10.1s-3.5-10.1-10.2-10.1
		S225.9,25.2,225.9,31.3L225.9,31.3z"/>
	<path class="st0" d="M290.5,39.5c-2.9,6-8.3,8-14.2,8.2c-8.5,0.2-16-6.2-16.5-14.7c-0.6-10,6.5-16.9,16.3-16.9
		c10.4,0,16.5,7.6,16,18.4h-25.5c0.9,5.4,5,7.5,9.4,7.5c3.5,0,7-0.5,9-4.5L290.5,39.5L290.5,39.5z M285.5,29.2
		c-0.9-5.4-5.2-7.6-9.5-7.6s-8.5,2.4-9.4,7.6H285.5z"/>
	<path class="st0" d="M306.5,15.4l0.6,4.5c1.9-3.9,6.8-5.2,10.1-5.2c3.2,0,6.6,0.9,9.2,3l-2.8,5.2c-6-4.6-15.8-1.4-16,6.8v17h-7
		V15.4H306.5L306.5,15.4z"/>
</g>
<path class="st0" d="M312.5,134.6L370.7,3.5h16.6l-58.6,131.2L312.5,134.6L312.5,134.6z"/>
<g>
	<path class="st0" d="M32.2,120.2l-0.6-4.6c-2.8,4.2-7.9,5.1-11.1,5.1c-12.6,0-18.2-7.9-18.2-16s6-16,18.2-16c3.9,0,9,1.9,10.9,5.1
		V75h7v45.2L32.2,120.2L32.2,120.2z M32.6,105.3c0-6.2-3.8-10.2-10.4-10.2s-10.2,5-10.2,10.1s3.5,10.1,10.2,10.1
		C28.4,115.2,32.6,111.4,32.6,105.3L32.6,105.3z"/>
	<path class="st0" d="M78.1,113c-2.9,6.1-8.3,8-14.2,8.2c-8.5,0.2-16-6.2-16.5-14.7c-0.6-10,6.5-16.9,16.3-16.9
		c10.4,0,16.5,7.6,16,18.4H54.1c0.9,5.4,5,7.5,9.4,7.5c3.5,0,7-0.5,9-4.5L78.1,113L78.1,113z M73,102.8c-0.9-5.4-5.2-7.6-9.5-7.6
		s-8.5,2.4-9.4,7.6H73z"/>
	<path class="st0" d="M109.6,99.1c-0.5-3.5-6.4-4.4-8.9-4.4c-3.7,0-7.9,0.5-7.9,3.7c0,7.1,24.9-1.3,23.2,13.1
		c-0.7,5.9-8.1,8.4-15.3,8.4c-7.9,0-14.8-3-15-10.2h5.9c0.2,3.9,4.4,5,9.1,5c4.2,0,8.4-1,8.9-3.7c0.5-2.9-3.9-3.4-8.6-3.7
		c-6.7-0.5-14.6-1.2-14.6-8.6s8.6-9.1,14.1-9.2c6.6,0,14.6,2,15.1,9.8h-6.1L109.6,99.1L109.6,99.1z"/>
	<path class="st0" d="M125.3,85.4v-8.7h6.9v8.7H125.3z M125.3,120.2V88.9h6.9v31.3H125.3z"/>
	<path class="st0" d="M166.1,95.7c2,1.2,3.7,3.3,3.7,6c0,7.5-7.5,10.8-14.1,10.8c-2.2,0-4.3-0.3-6.1-0.8c-1.2-0.3-2.8-0.7-4-0.3
		c-1.8,0.8-1.8,3.7,2,3.7h7.8c6.6,0,16.3,0.7,16.3,8.8s-9,10.5-15.6,10.5c-5.5,0-11.8-0.5-14.9-5.5c-2.2-3.5-1.7-8.5,1.8-10.5
		c-2.5-1-4-3-3.8-5.7c0.2-2.5,2-4.5,4.5-5.2c-1.7-1.5-2.5-3.8-2.5-5.8c0-2.3,0.7-4.3,2.2-6.2c3-3.5,8.3-4.7,12.6-4.5l14.6,0.3v4.5
		h-2.8L166.1,95.7L166.1,95.7z M147.4,120.2c-2.6,1.2-3.1,4-1.4,6.2c1.7,2.1,5.7,3.1,9.9,3.1c4.9,0,9.7-1.6,9.7-5.7
		c0-2.8-2.9-3.1-5-3.5c-1.7-0.2-3.5-0.2-5.2-0.2L147.4,120.2L147.4,120.2z M163.9,100.6c0-7.8-16.9-7.8-16.9,0c0,4.5,5,5.9,8.5,5.9
		S163.9,105,163.9,100.6L163.9,100.6z"/>
	<path class="st0" d="M181,88.9h5l0.5,4.7c1.8-3.4,5.5-5.2,9.6-5.2c7.7-0.2,15.9,3.8,15.9,15.9v15.9h-6.9v-15.6
		c0-7.3-4-9.9-8.3-10.1c-4.5,0-9.1,3.1-9.1,10.2v15.5h-6.9V88.9L181,88.9L181,88.9z"/>
	<path class="st0" d="M250.2,113c-2.9,6.1-8.3,8-14.2,8.2c-8.5,0.2-16-6.2-16.5-14.7c-0.6-10,6.5-16.9,16.3-16.9
		c10.4,0,16.5,7.6,16,18.4h-25.4c0.9,5.4,5,7.5,9.4,7.5c3.5,0,6.9-0.5,9-4.5L250.2,113L250.2,113z M245.2,102.8
		c-0.9-5.4-5.2-7.6-9.6-7.6s-8.5,2.4-9.4,7.6H245.2z"/>
	<path class="st0" d="M266.6,88.9l0.6,4.5c1.9-3.9,6.8-5.2,10.1-5.2c3.2,0,6.6,0.9,9.2,3l-2.8,5.2c-6-4.7-15.8-1.4-16,6.8v17h-7
		V88.9H266.6L266.6,88.9z"/>
</g>
<g>
	<path class="st0" d="M4.4,169.3v-19.7h2.9v8.3c0.8-1.4,2.8-2.3,4.4-2.3c5,0,7.4,3.4,7.4,7c0,3.5-2.3,7-7.4,7
		c-1.4,0-3.4-0.4-4.6-2.3l-0.2,2H4.4z M16.3,162.6c0-2.2-1.5-4.5-4.5-4.5c-2.9,0-4.6,1.8-4.6,4.6c0,2.7,1.8,4.4,4.6,4.4
		C14.7,167.1,16.3,164.8,16.3,162.6z"/>
	<path class="st0" d="M22.7,158.8c1.3-2.2,3.7-3.2,6.2-3.2c3.5,0,7.1,1.9,7.1,5.7v5.5l0.1,2.6h-2.7l-0.3-2.1
		c-0.9,1.6-2.9,2.5-5.4,2.4c-2.8,0-5.6-1.3-5.6-4.4c0-3.2,2.8-4.1,5.6-4.1H33c-0.1-1.9-2-3.1-4.1-3.1c-1.5,0-3.2,0.6-4.1,1.8
		L22.7,158.8z M33,163.4h-5.3c-1.3,0-2.7,0.5-2.7,1.9c0,1.6,2,1.9,3.2,1.8c2-0.1,4.8-0.6,4.8-3.2V163.4z"/>
	<path class="st0" d="M50.4,160c-0.3-1.6-2.9-2-4.1-2c-1.7,0-3.6,0.3-3.6,1.7c0,3.2,11.4-0.6,10.6,6c-0.3,2.7-3.7,3.8-7,3.8
		c-3.6,0-6.8-1.4-6.9-4.7h2.7c0.1,1.8,2,2.3,4.2,2.3c1.9,0,3.8-0.4,4.1-1.7c0.2-1.3-1.8-1.5-3.9-1.7c-3.1-0.2-6.7-0.6-6.7-4
		c0-3.2,3.9-4.1,6.5-4.2c3,0,6.7,1,6.9,4.4H50.4z"/>
	<path class="st0" d="M69.7,166c-1.3,2.7-3.9,3.6-6.5,3.6c-4.1,0-7.1-2.8-7.1-7s3.1-7,7.3-7c4.6,0,7.3,3.4,7.1,8.2H59
		c0.4,2.4,2.3,3.3,4.2,3.3c1.5,0,3.1-0.3,4-2L69.7,166z M67.4,161.4c-0.4-2.4-2.3-3.4-4.2-3.4c-2,0-3.8,1.1-4.1,3.4H67.4z"/>
	<path class="st0" d="M85.5,169.3l-0.2-2c-1.1,1.9-3.2,2.3-4.6,2.3c-5.1,0-7.4-3.5-7.4-7c0-3.6,2.5-7,7.4-7c1.6,0,3.7,0.8,4.5,2.3
		v-8.3H88v19.8H85.5z M85.3,162.7c0-2.8-1.7-4.6-4.6-4.6c-3,0-4.5,2.3-4.5,4.5c0,2.3,1.5,4.5,4.5,4.5
		C83.5,167.1,85.3,165.4,85.3,162.7z"/>
	<path class="st0" d="M100.3,153.5v-3.9h2.8v3.9H100.3z M100.3,169.3v-13.4h2.9v13.4H100.3z"/>
	<path class="st0" d="M107.2,155.9h2.6l0.3,2c0.8-1.4,2.4-2.2,4.1-2.2c3.3-0.1,6.9,1.6,6.9,6.8v6.9h-2.9v-6.9c0-3.2-1.9-4.4-3.8-4.4
		c-2.1,0-4.2,1.4-4.2,4.5v6.8h-2.9V155.9z"/>
	<path class="st0" d="M136.3,162.4l2.3-2.5l4.6-4h3.8v0.1l-6.7,6l6.7,7.3v0.1h-3.6l-5.2-5.7l-2.1,1.8v3.9h-2.9v-19.7h2.8
		L136.3,162.4L136.3,162.4z"/>
	<path class="st0" d="M149.1,158.8c1.3-2.2,3.7-3.2,6.2-3.2c3.5,0,7.1,1.9,7.1,5.7v5.5l0.1,2.6h-2.7l-0.3-2.1
		c-0.9,1.6-2.9,2.5-5.4,2.4c-2.8,0-5.6-1.3-5.6-4.4c0-3.2,2.8-4.1,5.6-4.1h5.3c-0.1-1.9-2-3.1-4.1-3.1c-1.5,0-3.2,0.6-4.1,1.8
		L149.1,158.8z M159.4,163.4h-5.3c-1.3,0-2.7,0.5-2.7,1.9c0,1.6,2,1.9,3.2,1.8c2-0.1,4.8-0.6,4.8-3.2V163.4z"/>
	<path class="st0" d="M169.3,155.9l0.2,1.9c0.8-1.7,2.7-2.2,4.1-2.2c1.3,0,2.7,0.4,3.8,1.3l-1.2,2.2c-2.5-2-6.5-0.6-6.6,2.9v7.3
		h-2.9v-13.4H169.3z"/>
	<path class="st0" d="M178.9,158.8c1.3-2.2,3.7-3.2,6.2-3.2c3.5,0,7.1,1.9,7.1,5.7v5.5l0.1,2.6h-2.7l-0.3-2.1
		c-0.9,1.6-2.9,2.5-5.4,2.4c-2.8,0-5.6-1.3-5.6-4.4c0-3.2,2.8-4.1,5.6-4.1h5.3c-0.1-1.9-2-3.1-4.1-3.1c-1.5,0-3.2,0.6-4.1,1.8
		L178.9,158.8z M189.2,163.4h-5.3c-1.3,0-2.7,0.5-2.7,1.9c0,1.6,2,1.9,3.2,1.8c2-0.1,4.8-0.6,4.8-3.2V163.4z"/>
	<path class="st0" d="M209.3,160l-2.4,0.6c-0.9-2-2.5-2.5-4-2.5c-2.7,0-4.2,2-4.2,4.6c0,2.5,1.7,4.4,4.2,4.4c1.5,0,3.1-0.6,4-2.7
		l2.5,0.6c-0.9,3.2-3.6,4.6-6.5,4.6c-4.1,0-7.1-2.7-7.1-6.9c0-4.3,2.8-7.1,7.1-7.1C205.8,155.5,208.4,156.8,209.3,160z"/>
	<path class="st0" d="M212.6,149.5h2.9v8.3c0.8-1.4,2.3-2.2,4.1-2.2c3.3-0.1,6.9,1.6,6.9,6.8v6.9h-2.9v-6.9c0-3.2-1.9-4.4-3.8-4.4
		c-2.1,0-4.2,1.4-4.2,4.5v6.8h-2.9V149.5z"/>
	<path class="st0" d="M230.8,153.5v-3.9h2.8v3.9H230.8z M230.8,169.3v-13.4h2.9v13.4H230.8z"/>
	<path class="st0" d="M237.8,166.4h3.1l-2.2,6.5h-2.3L237.8,166.4z"/>
	<path class="st0" d="M255,155.8l0.2,2c1.1-1.9,3.2-2.3,4.6-2.3c5.1,0,7.4,3.5,7.4,7c0,3.6-2.5,7-7.4,7c-1.6,0-3.6-0.8-4.4-2.3v8.1
		h-2.9v-19.6H255z M255.2,162.5c0,2.8,1.7,4.6,4.6,4.6c3,0,4.5-2.3,4.5-4.5c0-2.3-1.5-4.5-4.5-4.5
		C257,158.1,255.2,159.7,255.2,162.5z"/>
	<path class="st0" d="M274.1,162.4l2.3-2.5l4.6-4h3.8v0.1l-6.7,6l6.7,7.3v0.1h-3.6l-5.2-5.7l-2.1,1.8v3.9h-2.9v-19.7h2.8
		L274.1,162.4L274.1,162.4z"/>
</g>
</svg>
