<?xml version="1.0" encoding="utf-8"?>
<!-- Generator: Adobe Illustrator 26.5.0, SVG Export Plug-In . SVG Version: 6.00 Build 0)  -->
<svg version="1.1" id="Layer_1" xmlns="http://www.w3.org/2000/svg" xmlns:xlink="http://www.w3.org/1999/xlink" x="0px" y="0px"
	 viewBox="0 0 956.5 223.9" style="enable-background:new 0 0 956.5 223.9;" xml:space="preserve">
<style type="text/css">
	.st0{fill:#FFFFFF;}
	.st1{enable-background:new    ;}
</style>
<g id="Layer_2_00000026864476524319484350000017547295820458139070_">
</g>
<g id="Layer_1_00000074419250097306433720000004447041591072845447_">
	<g id="Layer_2_00000101098711941816553180000011640122400156949924_">
	</g>
	<g id="Layer_1_00000026884467608649759530000007539525746096653468_">
		<g>
			<path class="st0" d="M19.7,212.8c-8.7,15-21,9.1-19.6-3.6C7.4,175.4,80.8,61.5,124.9,11.4c10.9-9.1,21-1.4,14.6,7.7
				c-16.4,23.7-56,79.3-81.1,121.2c16.4-5.5,38.3-11.4,53.8-17.8c19.1-8.7,22.3,3.7,6.8,11.9c-18.2,9.6-41.5,13.7-59.2,21
				c26,57.9,65.6,13.7,100.2-9.1c12.3-8.7,16.9,1.4,5.5,9.6c-42.8,29.2-91.6,72-120.3,5C35.2,177.2,30.2,195,19.7,212.8L19.7,212.8z
				"/>
			<path class="st0" d="M129.9,195c0.5-15.5,12.3-34.2,28.7-48.8c20.5-18.2,46.9-30.5,65.6-24.2c5,1.4,8.2,2.3,12.8,0
				c3.6-3.2,9.1-2.7,12.8,0.9c4.6,3.6,1.8,8.7-1.4,13.2c-11.4,21.4-26,31.9-28.7,50.1c-5.5,36.4,72.9-38.3,77-43.3
				c10.9-12.3,17.3-3.6,8.2,6.4C288,167.6,258.4,195,233.8,210c-44.7,27.3-45.6-25.1-21-48.3c-16.9,11.4-44.6,36.4-64.7,45.1
				C137.7,211.8,129,205.9,129.9,195L129.9,195z M148.2,190.9c21.4-16.4,48.8-34.6,67.9-52.4C195.1,133.5,149.5,164.9,148.2,190.9
				L148.2,190.9z"/>
			<path class="st0" d="M268.5,214.1c-3.6,5-9.6,12.8-15.9,8.7c-7.3-4.1-4.1-13.2-1.4-18.7c6.8-13.2,45.1-71.5,69.3-88.4
				c11.9-8.7,26.4,0.5,16.9,9.1c-4.6,3.6-19.6,16.4-20.5,21c10.5-7.8,36.9-22.3,49.2-26.9c13.2-5,25.1,5,19.6,16.9
				c-12.3,27.8-5.5,29.6,9.6,21.9c7.8-3.6,16-8.2,26.4-14.6c11.9-7.3,13.7,2.3,7.3,7.8c-4.6,3.6-17.8,12.8-31.4,18.7
				c-18.7,8.2-37.8,11.9-37.8-8.2c0-6.8,2.7-12.8,4.6-18.2c2.7-8.7-0.9-9.1-11.9-2.7C318.1,159,291.7,184.5,268.5,214.1L268.5,214.1
				z"/>
			<path class="st0" d="M391.5,195c0.5-15.5,12.3-34.2,28.7-48.8c20.5-18.2,46.9-30.5,65.6-24.2c5,1.4,8.2,2.3,12.8,0
				c3.6-3.2,9.1-2.7,12.8,0.9c4.6,3.6,1.8,8.7-1.4,13.2c-11.4,21.4-26,31.9-28.7,50.1c-5.5,36.4,72.9-38.3,77-43.3
				c10.9-12.3,17.3-3.6,8.2,6.4C549.6,167.6,520,195,495.4,210c-44.6,27.3-45.6-25.1-21-48.3c-16.9,11.4-44.6,36.4-64.7,45.1
				C399.2,211.8,390.6,205.9,391.5,195L391.5,195z M409.7,190.9c21.4-16.4,48.8-34.6,67.9-52.4C456.6,133.5,411.1,164.9,409.7,190.9
				L409.7,190.9z"/>
			<path class="st0" d="M694.9,156.7c-31.4,22.8-68.8,47.8-105.7,62c-33.7,11.9-61-1.8-49.7-40.6c10.5-35.1,52.4-72.9,84.3-69.2
				c16.4,1.8,25.5,17.8,18.2,32.8c-3.7,9.1-7.8,1.4-9.6-5c-1.8-8.7-6.8-12.3-12.3-12.3c-18.2,0-74.7,57.4-62,76.5
				c11.8,19.6,116.6-41,130.8-53.3C699,139.8,705.4,146.7,694.9,156.7L694.9,156.7z"/>
			<path class="st0" d="M829.3,148.1c11.8-8.7,16.9-0.9,7.3,8.7c-15.5,14.6-61.5,56.9-81.5,60.1c-21,3.6-25.1-13.7-18.2-29.2
				c5.9-15.9,17.8-29.2,24.6-44.2c-33.7,11.4-63.8,39.6-86.1,65.1c-5.5,8.7-20,3.6-16.9-5.9C675.8,149.9,759.6,47.8,790.1,4.1
				c6.8-10,20,0.5,13.7,9.6c-26.4,37.8-69.7,95.2-98.9,144.9c16.4-12.8,36-24.1,55.1-30.5c9.6-3.2,23.2-3.2,21,10
				c-4.1,18.2-16.4,33.7-24.2,49.7c-11.8,24.1,11.4,8.2,20.5,2.7C795.2,179.9,813.8,162.6,829.3,148.1L829.3,148.1z"/>
			<path class="st0" d="M924.1,144.4c7.3-6.4,16.9-2.7,7.3,6.4c-8.7,6.8-92.9,83.4-116.2,62c-22.8-21.4,21.4-77.4,35.5-92.5
				c12.3-12.3,27.3,0.5,14.6,14.6c-12.8,15.5-24.2,32.4-33.3,51c-9.6,21.9,9.6,16.4,22.8,7.8C878.5,178.1,897.2,162.6,924.1,144.4z
				 M888.6,99.8c-1.4,11.8-30.1,3.6-18.7-9.1C876.7,84.7,889.9,90.7,888.6,99.8z"/>
			<path class="st0" d="M947.3,207.3c-13.2,0.9-14.1-20.1-0.5-20.1S959.2,207.3,947.3,207.3z"/>
		</g>
	</g>
	<g class="st1">
		<path class="st0" d="M165.7,87.3l-0.3-2.6c-1.5,2.4-4.2,2.9-5.9,2.9c-6.7,0-9.7-4.5-9.7-9.1c0-4.7,3.2-9.1,9.7-9.1
			c2.1,0,4.8,1.1,5.8,2.9V61.6h3.7v25.7H165.7z M165.4,78.7c0-3.6-2.2-5.9-6-5.9c-3.9,0-5.9,2.9-5.9,5.8c0,2.9,2,5.8,5.9,5.8
			C163.1,84.4,165.4,82.2,165.4,78.7z"/>
		<path class="st0" d="M191.7,83c-1.7,3.6-5,4.7-8.5,4.7c-5.4,0-9.2-3.7-9.2-9.1s4-9.1,9.4-9.1c6,0,9.5,4.4,9.2,10.6h-14.7
			c0.5,3.1,2.9,4.3,5.4,4.3c2,0,4-0.3,5.2-2.6L191.7,83z M188.8,77.1c-0.5-3.1-3-4.4-5.5-4.4c-2.6,0-4.9,1.4-5.4,4.4H188.8z"/>
		<path class="st0" d="M194.5,69.8h4.1l4.5,8.8l2.2,5l2.1-5l4.5-8.8h4.1v0.2l-9,17.4h-3.4l-9-17.4V69.8z"/>
		<path class="st0" d="M235.5,83c-1.7,3.6-5,4.7-8.5,4.7c-5.4,0-9.2-3.7-9.2-9.1s4-9.1,9.4-9.1c6,0,9.5,4.4,9.2,10.6h-14.7
			c0.5,3.1,2.9,4.3,5.4,4.3c2,0,4-0.3,5.2-2.6L235.5,83z M232.6,77.1c-0.5-3.1-3-4.4-5.5-4.4c-2.6,0-4.9,1.4-5.4,4.4H232.6z"/>
		<path class="st0" d="M244.8,87.3H241V61.7h3.8V87.3z"/>
		<path class="st0" d="M249,78.5c0-5.3,4.1-9.1,9.6-9.1c5.5,0,9.6,3.7,9.6,9.1c0,5.4-4.1,9.1-9.6,9.1C253.1,87.6,249,83.9,249,78.5z
			 M264.4,78.5c0-3.5-2.4-5.9-5.7-5.9c-3.4,0-5.8,2.5-5.8,5.9c0,3.5,2.4,6,5.8,6C262,84.5,264.4,82,264.4,78.5z"/>
		<path class="st0" d="M276.4,69.8l0.3,2.6c1.5-2.4,4.2-2.9,5.9-2.9c6.7,0,9.7,4.5,9.7,9.1c0,4.7-3.2,9.1-9.7,9.1
			c-2.1,0-4.7-1.1-5.8-2.9v10.5h-3.8V69.8H276.4z M276.7,78.4c0,3.6,2.2,5.9,6,5.9c3.9,0,5.9-2.9,5.9-5.8c0-2.9-2-5.8-5.9-5.8
			C279,72.7,276.7,74.9,276.7,78.4z"/>
		<path class="st0" d="M313.9,83c-1.7,3.6-5,4.7-8.5,4.7c-5.4,0-9.2-3.7-9.2-9.1s4-9.1,9.4-9.1c6,0,9.5,4.4,9.2,10.6h-14.7
			c0.5,3.1,2.9,4.3,5.4,4.3c2,0,4-0.3,5.2-2.6L313.9,83z M311,77.1c-0.5-3.1-3-4.4-5.5-4.4c-2.6,0-4.9,1.4-5.4,4.4H311z"/>
		<path class="st0" d="M322.9,69.8l0.3,2.5c1-2.2,3.6-2.9,5.4-2.9c1.7,0,3.5,0.5,4.9,1.7l-1.5,2.9c-3.2-2.6-8.4-0.8-8.5,3.8v9.5
			h-3.7V69.8H322.9z"/>
		<path class="st0" d="M344.7,90.1l13.3-30h3.8l-13.4,30H344.7z"/>
		<path class="st0" d="M389.6,87.3l-0.3-2.6c-1.5,2.4-4.2,2.9-5.9,2.9c-6.7,0-9.7-4.5-9.7-9.1c0-4.7,3.2-9.1,9.7-9.1
			c2.1,0,4.8,1.1,5.8,2.9V61.6h3.7v25.7H389.6z M389.4,78.7c0-3.6-2.2-5.9-6-5.9c-3.9,0-5.9,2.9-5.9,5.8c0,2.9,2,5.8,5.9,5.8
			C387,84.4,389.4,82.2,389.4,78.7z"/>
		<path class="st0" d="M415.6,83c-1.7,3.6-5,4.7-8.5,4.7c-5.4,0-9.2-3.7-9.2-9.1s4-9.1,9.4-9.1c6,0,9.5,4.4,9.2,10.6h-14.7
			c0.5,3.1,2.9,4.3,5.4,4.3c2,0,4-0.3,5.2-2.6L415.6,83z M412.7,77.1c-0.5-3.1-3-4.4-5.5-4.4c-2.6,0-4.9,1.4-5.4,4.4H412.7z"/>
		<path class="st0" d="M434.2,75.2c-0.3-2.1-3.8-2.6-5.3-2.6c-2.2,0-4.7,0.3-4.7,2.2c0,4.2,14.8-0.8,13.8,7.8c-0.4,3.5-4.8,5-9.1,5
			c-4.7,0-8.8-1.8-8.9-6.1h3.5c0.1,2.3,2.6,3,5.4,3c2.5,0,5-0.6,5.3-2.2c0.3-1.7-2.3-2-5.1-2.2c-4-0.3-8.7-0.7-8.7-5.1
			c0-4.2,5.1-5.4,8.4-5.5c3.9,0,8.7,1.2,9,5.8H434.2z"/>
		<path class="st0" d="M442.5,66.8v-5.1h3.7v5.1H442.5z M442.5,87.3V69.8h3.7v17.5H442.5z"/>
		<path class="st0" d="M466.6,72.4c1.2,0.7,2.2,2,2.2,3.6c0,4.5-4.5,6.5-8.5,6.5c-1.3,0-2.6-0.2-3.7-0.5c-0.7-0.2-1.7-0.4-2.4-0.2
			c-1.1,0.5-1.1,2.2,1.2,2.2h4.7c4,0,9.8,0.4,9.8,5.3c0,4.8-5.4,6.3-9.4,6.3c-3.3,0-7.1-0.3-9-3.3c-1.3-2.1-1-5.1,1.1-6.3
			c-1.5-0.6-2.4-1.8-2.3-3.4c0.1-1.5,1.2-2.7,2.7-3.1c-1-0.9-1.5-2.3-1.5-3.5c0-1.4,0.4-2.6,1.3-3.7c1.8-2.1,5-2.8,7.6-2.7l8.8,0.2
			v0.4c0,0.7,0,1.3,0,1.9v0.4l-1.7,0L466.6,72.4z M455.5,87.2c-1.5,0.7-1.8,2.3-0.8,3.6c1,1.2,3.3,1.8,5.7,1.8
			c2.8,0,5.6-0.9,5.6-3.3c0-1.6-1.7-1.8-2.9-2c-1-0.1-2-0.1-3-0.1H455.5z M465,76c0-4.5-9.7-4.5-9.7,0c0,2.6,2.9,3.4,4.9,3.4
			C462.2,79.4,465,78.5,465,76z"/>
		<path class="st0" d="M474.5,69.8h3.4l0.3,2.6c1-1.9,3.1-2.9,5.4-2.9c4.3-0.1,8.9,2.1,8.9,8.9v8.9h-3.8v-9c0-4.2-2.4-5.7-5-5.8
			c-2.7,0-5.5,1.8-5.5,5.9v8.8h-3.8V69.8z"/>
		<path class="st0" d="M514.7,83c-1.7,3.6-5,4.7-8.5,4.7c-5.4,0-9.2-3.7-9.2-9.1s4-9.1,9.4-9.1c6,0,9.5,4.4,9.2,10.6H501
			c0.5,3.1,2.9,4.3,5.4,4.3c2,0,4-0.3,5.2-2.6L514.7,83z M511.8,77.1c-0.5-3.1-3-4.4-5.5-4.4c-2.6,0-4.9,1.4-5.4,4.4H511.8z"/>
		<path class="st0" d="M523.7,69.8l0.3,2.5c1-2.2,3.6-2.9,5.4-2.9c1.7,0,3.5,0.5,4.9,1.7l-1.5,2.9c-3.2-2.6-8.4-0.8-8.5,3.8v9.5
			h-3.7V69.8H523.7z"/>
		<path class="st0" d="M547.7,87.3V61.6h3.8v10.8c1-1.9,3.7-2.9,5.8-2.9c6.5,0,9.7,4.4,9.7,9.1c0,4.5-3,9.1-9.7,9.1
			c-1.8,0-4.5-0.5-5.9-2.9l-0.3,2.6H547.7z M563.2,78.6c0-2.9-2-5.8-5.9-5.8c-3.8,0-6,2.3-6,5.9c0,3.5,2.3,5.7,6,5.7
			C561.2,84.4,563.2,81.5,563.2,78.6z"/>
		<path class="st0" d="M571.5,73.6c1.7-2.9,4.8-4.2,8-4.2c4.5,0,9.2,2.5,9.2,7.4V84l0.1,3.3h-3.5l-0.3-2.7c-1.2,2.1-3.7,3.2-7,3.2
			c-3.6,0-7.2-1.7-7.2-5.7c0-4.1,3.6-5.4,7.2-5.4h6.9c-0.2-2.5-2.6-4-5.4-4c-1.9,0-4.2,0.8-5.3,2.4L571.5,73.6z M584.9,79.7H578
			c-1.7,0-3.6,0.7-3.5,2.4c0,2,2.6,2.4,4.1,2.4c2.6-0.1,6.3-0.8,6.3-4.2V79.7z"/>
		<path class="st0" d="M607.5,75.2c-0.3-2.1-3.8-2.6-5.3-2.6c-2.2,0-4.7,0.3-4.7,2.2c0,4.2,14.8-0.8,13.8,7.8c-0.4,3.5-4.8,5-9.1,5
			c-4.7,0-8.8-1.8-8.9-6.1h3.5c0.1,2.3,2.6,3,5.4,3c2.5,0,5-0.6,5.3-2.2c0.3-1.7-2.3-2-5.1-2.2c-4-0.3-8.7-0.7-8.7-5.1
			c0-4.2,5.1-5.4,8.4-5.5c3.9,0,8.7,1.2,9,5.8H607.5z"/>
		<path class="st0" d="M632.6,83c-1.7,3.6-5,4.7-8.5,4.7c-5.4,0-9.2-3.7-9.2-9.1s4-9.1,9.4-9.1c6,0,9.5,4.4,9.2,10.6h-14.7
			c0.5,3.1,2.9,4.3,5.4,4.3c2,0,4-0.3,5.2-2.6L632.6,83z M629.7,77.1c-0.5-3.1-3-4.4-5.5-4.4c-2.6,0-4.9,1.4-5.4,4.4H629.7z"/>
		<path class="st0" d="M653.2,87.3l-0.3-2.6c-1.5,2.4-4.2,2.9-5.9,2.9c-6.7,0-9.7-4.5-9.7-9.1c0-4.7,3.2-9.1,9.7-9.1
			c2.1,0,4.8,1.1,5.8,2.9V61.6h3.7v25.7H653.2z M652.9,78.7c0-3.6-2.2-5.9-6-5.9c-3.9,0-5.9,2.9-5.9,5.8c0,2.9,2,5.8,5.9,5.8
			C650.6,84.4,652.9,82.2,652.9,78.7z"/>
		<path class="st0" d="M672.4,66.8v-5.1h3.7v5.1H672.4z M672.4,87.3V69.8h3.7v17.5H672.4z"/>
		<path class="st0" d="M681.4,69.8h3.4l0.3,2.6c1-1.9,3.1-2.9,5.4-2.9c4.3-0.1,8.9,2.1,8.9,8.9v8.9h-3.8v-9c0-4.2-2.4-5.7-5-5.8
			c-2.7,0-5.5,1.8-5.5,5.9v8.8h-3.8V69.8z"/>
	</g>
</g>
</svg>
