<?xml version="1.0" encoding="UTF-8"?><svg id="Layer_1" xmlns="http://www.w3.org/2000/svg" viewBox="0 0 70 70"><defs><style>.cls-1{fill:#fff;}</style></defs><path d="M29.24,.33C11.09,3.19-2,20.31,.25,39.17c2.21,18.47,17.21,29.18,28.99,30.49V.33Zm10.23,38.1c.71-.87,1.32-1.64,1.94-2.39,3.84-4.65,7.71-9.27,11.52-13.94,2.63-3.23,5.17-6.54,7.76-9.8,.4-.5,.47-.82-.07-1.3-1.22-1.08-2.33-2.29-3.58-3.34-3.62-3.03-7.73-5.15-12.22-6.5-1.73-.52-3.54-.78-5.36-1.16V38.43Zm9.27,3.23c4.62,5.04,9.2,10.03,13.79,15.03,8.16-9.95,9.53-24.81,4.66-35.23-6.14,6.73-12.26,13.42-18.45,20.2Zm-9.27,3.49v24.86c5.82-.76,11.08-2.84,15.88-6.26-5.26-6.16-10.52-12.31-15.88-18.59Z"/><path class="cls-1" d="M29.24,.33V69.66c-11.78-1.3-26.78-12.02-28.99-30.49C-2,20.31,11.09,3.19,29.24,.33Z"/><path class="cls-1" d="M39.47,38.43V0c1.82,.39,3.63,.64,5.36,1.16,4.49,1.35,8.61,3.47,12.22,6.5,1.25,1.04,2.35,2.26,3.58,3.34,.53,.47,.47,.79,.07,1.3-2.6,3.26-5.13,6.57-7.76,9.8-3.81,4.67-7.68,9.29-11.52,13.94-.62,.75-1.23,1.52-1.94,2.39Z"/><path class="cls-1" d="M48.73,41.65c6.19-6.78,12.31-13.47,18.45-20.2,4.87,10.42,3.49,25.28-4.66,35.23-4.59-5-9.17-9.99-13.79-15.03Z"/><path class="cls-1" d="M39.47,45.14c5.36,6.28,10.62,12.44,15.88,18.59-4.8,3.42-10.06,5.5-15.88,6.26v-24.86Z"/></svg>