<?xml version="1.0" encoding="utf-8"?>
<!-- Generator: Adobe Illustrator 26.5.0, SVG Export Plug-In . SVG Version: 6.00 Build 0)  -->
<svg version="1.1" id="Layer_1" xmlns="http://www.w3.org/2000/svg" xmlns:xlink="http://www.w3.org/1999/xlink" x="0px" y="0px"
	 viewBox="0 0 800 800" style="enable-background:new 0 0 800 800;" xml:space="preserve">
<style type="text/css">
	.st0{fill:#303030;}
</style>
<g>
	<path class="st0" d="M215.7,44.9C105.3,102.3,25.1,209.7,4.9,337h23.2c149.6-3.5,266.9-16.4,362.6-45.7
		c-41.6-73.8-92.3-146.1-153.2-219.7l-0.1-0.1L215.7,44.9z"/>
	<path class="st0" d="M0.1,390.4C0,393.6,0,396.8,0,400c0,107.6,42.5,205.2,111.5,277.1l8.6-17.3c0.5-0.9,1-1.9,1.6-2.8
		c88.4-134.5,188.5-214.5,300.3-250.4c7.6-2.4,15.3-4.7,22.9-6.7c-8.9-20.4-18.5-40.7-28.6-60.8C311.6,372.9,185.6,386.8,29,390.4
		l-0.6,0L0.1,390.4z"/>
	<path class="st0" d="M152.6,714.3C220.7,768,306.6,800,400,800c47.6,0,93.3-8.3,135.6-23.6V738c-13-103.2-35.9-197.9-70.3-288.2
		c-9.1,2.2-18.1,4.8-27,7.6c-97.2,31.2-188,101.5-271.2,227.6L152.6,714.3z"/>
	<path class="st0" d="M589,752.6c102.6-55.1,178.4-153.8,202.7-271.2l-30.1-13.6c-86.7-25.5-167.5-36-242.8-27.5
		c34.1,91.8,56.9,188.1,70,292.7c0.1,1.1,0.2,2.2,0.2,3.3V752.6z"/>
	<path class="st0" d="M799.2,426.2c0.6-8.7,0.8-17.4,0.8-26.2c0-99.9-36.6-191.2-97.1-261.3l-15.8,17.6
		c-62.4,75.9-133.6,128.5-220.3,164.4c11.3,22.6,21.8,45.4,31.6,68.5c89.2-12.7,182.9-0.8,280.1,28c1.2,0.3,2.3,0.8,3.4,1.3
		L799.2,426.2z"/>
	<path class="st0" d="M665.4,100.7C594.8,38.1,501.8,0,400,0c-46.8,0-91.7,8-133.5,22.8l12.1,14.8c65,78.6,119.1,156.2,163.1,235.6
		C524,240.1,589.3,191.5,646.2,122c0.3-0.3,0.5-0.6,0.8-1L665.4,100.7z"/>
</g>
</svg>
